<svg width="558" height="72" viewBox="0 0 558 72" fill="none" xmlns="http://www.w3.org/2000/svg">
<rect x="279" y="0.305664" width="239" height="35" fill="#0057CD"/>
<path d="M47.406 70.3057V7.58566L54.266 14.4457H33.686V1.70566H63.282V70.3057H47.406ZM97.445 71.4817C92.6756 71.4817 87.939 70.861 83.235 69.6197C78.531 68.313 74.5456 66.4837 71.279 64.1317L77.453 51.9797C80.0663 53.8743 83.1043 55.377 86.567 56.4877C90.0296 57.5983 93.525 58.1537 97.053 58.1537C101.038 58.1537 104.174 57.3697 106.461 55.8017C108.748 54.2337 109.891 52.0777 109.891 49.3337C109.891 46.7203 108.878 44.6623 106.853 43.1597C104.828 41.657 101.561 40.9057 97.053 40.9057H89.801V30.4197L108.911 8.76166L110.675 14.4457H74.709V1.70566H122.729V11.9957L103.717 33.6537L95.681 29.0477H100.287C108.715 29.0477 115.085 30.9423 119.397 34.7317C123.709 38.521 125.865 43.3883 125.865 49.3337C125.865 53.1883 124.852 56.8143 122.827 60.2117C120.802 63.5437 117.698 66.255 113.517 68.3457C109.336 70.4363 103.978 71.4817 97.445 71.4817ZM134.469 48.8437V36.5937H162.203V48.8437H134.469ZM179.476 70.3057V7.58566L186.336 14.4457H165.756V1.70566H195.352V70.3057H179.476ZM218.245 70.3057L245.881 7.78166L249.997 14.6417H213.051L220.107 7.19366V25.8137H205.995V1.70566H260.973V11.9957L235.493 70.3057H218.245Z" fill="white"/>
<path d="M289.196 30V5.96H294.794L308.05 21.9638H305.406V5.96H312.068V30H306.471L293.214 13.9962H295.859V30H289.196ZM330.705 30.4808C328.782 30.4808 327.007 30.1717 325.382 29.5535C323.756 28.9354 322.337 28.0654 321.123 26.9435C319.933 25.7987 319.006 24.4708 318.342 22.9597C317.678 21.4486 317.346 19.7887 317.346 17.98C317.346 16.1713 317.678 14.5114 318.342 13.0003C319.006 11.4892 319.933 10.1727 321.123 9.05086C322.337 7.9061 323.756 7.02463 325.382 6.40646C327.007 5.78829 328.782 5.4792 330.705 5.4792C332.651 5.4792 334.426 5.78829 336.028 6.40646C337.654 7.02463 339.062 7.9061 340.252 9.05086C341.443 10.1727 342.37 11.4892 343.034 13.0003C343.721 14.5114 344.064 16.1713 344.064 17.98C344.064 19.7887 343.721 21.4601 343.034 22.9941C342.37 24.5051 341.443 25.8216 340.252 26.9435C339.062 28.0654 337.654 28.9354 336.028 29.5535C334.426 30.1717 332.651 30.4808 330.705 30.4808ZM330.705 24.8486C331.621 24.8486 332.468 24.6883 333.246 24.3678C334.048 24.0472 334.735 23.5893 335.307 22.9941C335.902 22.3759 336.36 21.6432 336.681 20.7961C337.024 19.949 337.196 19.0103 337.196 17.98C337.196 16.9268 337.024 15.9881 336.681 15.1639C336.36 14.3168 335.902 13.5956 335.307 13.0003C334.735 12.3821 334.048 11.9128 333.246 11.5922C332.468 11.2717 331.621 11.1114 330.705 11.1114C329.789 11.1114 328.931 11.2717 328.129 11.5922C327.351 11.9128 326.664 12.3821 326.069 13.0003C325.496 13.5956 325.039 14.3168 324.695 15.1639C324.375 15.9881 324.214 16.9268 324.214 17.98C324.214 19.0103 324.375 19.949 324.695 20.7961C325.039 21.6432 325.496 22.3759 326.069 22.9941C326.664 23.5893 327.351 24.0472 328.129 24.3678C328.931 24.6883 329.789 24.8486 330.705 24.8486ZM355.888 30L345.62 5.96H352.969L361.624 26.7718H357.296L366.157 5.96H372.888L362.585 30H355.888ZM382.263 15.2669H393.424V20.3497H382.263V15.2669ZM382.744 24.7455H395.313V30H376.012V5.96H394.867V11.2145H382.744V24.7455ZM400.804 30V5.96H406.402L416.361 22.3072H413.408L423.092 5.96H428.69L428.759 30H422.508L422.44 15.473H423.504L416.258 27.6303H413.236L405.783 15.473H407.088V30H400.804ZM435.287 30V5.96H447.582C450.742 5.96 453.1 6.54383 454.657 7.71149C456.214 8.85625 456.992 10.3673 456.992 12.2447C456.992 13.4811 456.66 14.5686 455.996 15.5073C455.355 16.4231 454.439 17.1558 453.249 17.7053C452.081 18.2318 450.684 18.4951 449.059 18.4951L449.746 16.8467C451.44 16.8467 452.917 17.11 454.176 17.6366C455.435 18.1403 456.408 18.8844 457.095 19.8689C457.805 20.8305 458.16 22.0096 458.16 23.4062C458.16 25.4896 457.313 27.1152 455.618 28.2829C453.947 29.4276 451.497 30 448.269 30H435.287ZM442.019 25.089H447.72C448.887 25.089 449.769 24.8944 450.364 24.5051C450.982 24.093 451.291 23.4749 451.291 22.6506C451.291 21.8264 450.982 21.2197 450.364 20.8305C449.769 20.4183 448.887 20.2123 447.72 20.2123H441.538V15.5073H446.689C447.834 15.5073 448.693 15.3127 449.265 14.9235C449.837 14.5343 450.124 13.9504 450.124 13.172C450.124 12.3936 449.837 11.8212 449.265 11.4549C448.693 11.0656 447.834 10.871 446.689 10.871H442.019V25.089ZM469.649 15.2669H480.811V20.3497H469.649V15.2669ZM470.13 24.7455H482.7V30H463.399V5.96H482.253V11.2145H470.13V24.7455ZM488.19 30V5.96H499.18C501.378 5.96 503.267 6.31488 504.846 7.02463C506.449 7.73438 507.685 8.76467 508.555 10.1155C509.425 11.4434 509.86 13.0232 509.86 14.8548C509.86 16.6635 509.425 18.2318 508.555 19.5598C507.685 20.8648 506.449 21.8722 504.846 22.5819C503.267 23.2688 501.378 23.6122 499.18 23.6122H491.968L494.99 20.7618V30H488.19ZM503.061 30L497.085 21.2426H504.331L510.341 30H503.061ZM494.99 21.483L491.968 18.3578H498.768C500.187 18.3578 501.24 18.0487 501.927 17.4305C502.637 16.8123 502.992 15.9538 502.992 14.8548C502.992 13.7329 502.637 12.8629 501.927 12.2447C501.24 11.6266 500.187 11.3175 498.768 11.3175H491.968L494.99 8.19229V21.483Z" fill="white"/>
<path d="M302.008 65V42.6H305.432L315.224 58.952H313.432L323.064 42.6H326.488L326.52 65H322.584L322.552 48.776H323.384L315.192 62.44H313.336L305.016 48.776H305.976V65H302.008ZM329.402 65L339.483 42.6H343.579L353.691 65H349.339L340.667 44.808H342.331L333.691 65H329.402ZM334.043 59.816L335.163 56.552H347.259L348.378 59.816H334.043ZM356.539 65V42.6H360.699V61.48H372.411V65H356.539ZM378.146 65V46.12H370.722V42.6H389.73V46.12H382.306V65H378.146ZM388.559 65L398.639 42.6H402.735L412.847 65H408.495L399.823 44.808H401.487L392.847 65H388.559ZM393.199 59.816L394.319 56.552H406.415L407.535 59.816H393.199ZM415.318 69.832L417.174 62.76L417.718 65.128C416.971 65.128 416.342 64.904 415.83 64.456C415.339 63.9867 415.094 63.3573 415.094 62.568C415.094 61.7573 415.339 61.1173 415.83 60.648C416.342 60.1573 416.961 59.912 417.686 59.912C418.433 59.912 419.051 60.1573 419.542 60.648C420.033 61.1387 420.278 61.7787 420.278 62.568C420.278 62.7813 420.257 63.016 420.214 63.272C420.171 63.5067 420.097 63.784 419.99 64.104C419.905 64.424 419.755 64.8293 419.542 65.32L417.91 69.832H415.318ZM433.414 65V42.6H436.838L446.63 58.952H444.838L454.47 42.6H457.894L457.926 65H453.99L453.958 48.776H454.79L446.598 62.44H444.742L436.422 48.776H437.382V65H433.414ZM463.977 65V42.6H467.401L477.193 58.952H475.401L485.033 42.6H488.457L488.489 65H484.553L484.521 48.776H485.353L477.161 62.44H475.305L466.985 48.776H467.945V65H463.977ZM510.283 42.6H514.443V65H510.283V42.6ZM498.699 65H494.539V42.6H498.699V65ZM510.603 55.4H498.347V51.848H510.603V55.4Z" fill="white"/>
<path d="M286.5 53.1307C285.6 53.1307 284.737 52.7751 284.101 52.1421C283.465 51.5092 283.107 50.6508 283.107 49.7557C283.107 48.8606 283.465 48.0021 284.101 47.3692C284.737 46.7362 285.6 46.3807 286.5 46.3807C287.4 46.3807 288.263 46.7362 288.899 47.3692C289.535 48.0021 289.893 48.8606 289.893 49.7557C289.893 50.1989 289.805 50.6377 289.635 51.0472C289.464 51.4567 289.214 51.8288 288.899 52.1421C288.584 52.4555 288.21 52.7041 287.798 52.8738C287.387 53.0434 286.946 53.1307 286.5 53.1307ZM286.5 40.3057C283.98 40.3057 281.564 41.3013 279.782 43.0735C278.001 44.8457 277 47.2494 277 49.7557C277 56.8432 286.5 67.3057 286.5 67.3057C286.5 67.3057 296 56.8432 296 49.7557C296 47.2494 294.999 44.8457 293.218 43.0735C291.436 41.3013 289.02 40.3057 286.5 40.3057Z" fill="#FF1919"/>
</svg>
