<svg width="500" height="82" viewBox="0 0 500 82" fill="none" xmlns="http://www.w3.org/2000/svg">
<rect y="0.805664" width="500" height="81" rx="40.5" fill="white" fill-opacity="0.8"/>
<path d="M79 41.4869L72.5673 34.1816L73.4636 24.5112L63.9464 22.3564L58.9636 14L50 17.8366L41.0364 14L36.0536 22.3564L26.5364 24.485L27.4327 34.1553L21 41.4869L27.4327 48.7922L26.5364 58.4888L36.0536 60.6436L41.0364 69L50 65.1371L58.9636 68.9737L63.9464 60.6173L73.4636 58.4625L72.5673 48.7922L79 41.4869ZM44.7273 54.6259L34.1818 44.1147L37.8991 40.4095L44.7273 47.1892L62.1009 29.872L65.8182 33.6034L44.7273 54.6259Z" fill="#41CB00"/>
<path d="M117.192 26.8057V13.8257H112.088V11.4057H125.156V13.8257H120.052V26.8057H117.192ZM133.704 14.9257C134.643 14.9257 135.479 15.109 136.212 15.4757C136.96 15.8423 137.547 16.407 137.972 17.1697C138.398 17.9177 138.61 18.8857 138.61 20.0737V26.8057H135.86V20.4257C135.86 19.3843 135.611 18.607 135.112 18.0937C134.628 17.5803 133.946 17.3237 133.066 17.3237C132.421 17.3237 131.849 17.4557 131.35 17.7197C130.852 17.9837 130.463 18.3797 130.184 18.9077C129.92 19.421 129.788 20.0737 129.788 20.8657V26.8057H127.038V10.4817H129.788V18.2257L129.194 17.2577C129.605 16.5097 130.199 15.9377 130.976 15.5417C131.768 15.131 132.678 14.9257 133.704 14.9257ZM149.337 26.8057V24.4297L149.183 23.9237V19.7657C149.183 18.959 148.941 18.3357 148.457 17.8957C147.973 17.441 147.24 17.2137 146.257 17.2137C145.597 17.2137 144.944 17.3163 144.299 17.5217C143.668 17.727 143.133 18.013 142.693 18.3797L141.615 16.3777C142.246 15.8937 142.994 15.5343 143.859 15.2997C144.739 15.0503 145.648 14.9257 146.587 14.9257C148.288 14.9257 149.601 15.3363 150.525 16.1577C151.464 16.9643 151.933 18.2183 151.933 19.9197V26.8057H149.337ZM145.641 26.9597C144.761 26.9597 143.991 26.813 143.331 26.5197C142.671 26.2117 142.158 25.7937 141.791 25.2657C141.439 24.723 141.263 24.1143 141.263 23.4397C141.263 22.7797 141.417 22.1857 141.725 21.6577C142.048 21.1297 142.568 20.7117 143.287 20.4037C144.006 20.0957 144.959 19.9417 146.147 19.9417H149.557V21.7677H146.345C145.406 21.7677 144.776 21.9217 144.453 22.2297C144.13 22.523 143.969 22.8897 143.969 23.3297C143.969 23.8283 144.167 24.2243 144.563 24.5177C144.959 24.811 145.509 24.9577 146.213 24.9577C146.888 24.9577 147.489 24.8037 148.017 24.4957C148.56 24.1877 148.948 23.733 149.183 23.1317L149.645 24.7817C149.381 25.471 148.904 26.0063 148.215 26.3877C147.54 26.769 146.682 26.9597 145.641 26.9597ZM162.128 14.9257C163.067 14.9257 163.903 15.109 164.636 15.4757C165.384 15.8423 165.971 16.407 166.396 17.1697C166.822 17.9177 167.034 18.8857 167.034 20.0737V26.8057H164.284V20.4257C164.284 19.3843 164.035 18.607 163.536 18.0937C163.052 17.5803 162.37 17.3237 161.49 17.3237C160.845 17.3237 160.273 17.4557 159.774 17.7197C159.276 17.9837 158.887 18.3797 158.608 18.9077C158.344 19.421 158.212 20.0737 158.212 20.8657V26.8057H155.462V15.0577H158.08V18.2257L157.618 17.2577C158.029 16.5097 158.623 15.9377 159.4 15.5417C160.192 15.131 161.102 14.9257 162.128 14.9257ZM172.767 24.1877L172.833 20.7337L178.971 15.0577H182.271L177.057 20.2937L175.605 21.5037L172.767 24.1877ZM170.523 26.8057V10.4817H173.273V26.8057H170.523ZM179.389 26.8057L175.099 21.5037L176.837 19.3037L182.733 26.8057H179.389ZM191.557 31.2277C190.985 31.2277 190.413 31.1323 189.841 30.9417C189.269 30.751 188.792 30.487 188.411 30.1497L189.511 28.1257C189.79 28.375 190.105 28.573 190.457 28.7197C190.809 28.8663 191.168 28.9397 191.535 28.9397C192.034 28.9397 192.437 28.815 192.745 28.5657C193.053 28.3163 193.339 27.8983 193.603 27.3117L194.285 25.7717L194.505 25.4417L198.949 15.0577H201.589L196.089 27.7517C195.722 28.6317 195.312 29.3283 194.857 29.8417C194.417 30.355 193.918 30.7143 193.361 30.9197C192.818 31.125 192.217 31.2277 191.557 31.2277ZM193.977 27.2237L188.675 15.0577H191.535L195.847 25.1997L193.977 27.2237ZM208.266 26.9597C207.063 26.9597 205.992 26.703 205.054 26.1897C204.115 25.6617 203.374 24.943 202.832 24.0337C202.289 23.1243 202.018 22.0903 202.018 20.9317C202.018 19.7583 202.289 18.7243 202.832 17.8297C203.374 16.9203 204.115 16.209 205.054 15.6957C205.992 15.1823 207.063 14.9257 208.266 14.9257C209.483 14.9257 210.561 15.1823 211.5 15.6957C212.453 16.209 213.194 16.913 213.722 17.8077C214.264 18.7023 214.536 19.7437 214.536 20.9317C214.536 22.0903 214.264 23.1243 213.722 24.0337C213.194 24.943 212.453 25.6617 211.5 26.1897C210.561 26.703 209.483 26.9597 208.266 26.9597ZM208.266 24.6057C208.94 24.6057 209.542 24.459 210.07 24.1657C210.598 23.8723 211.008 23.447 211.302 22.8897C211.61 22.3323 211.764 21.6797 211.764 20.9317C211.764 20.169 211.61 19.5163 211.302 18.9737C211.008 18.4163 210.598 17.991 210.07 17.6977C209.542 17.4043 208.948 17.2577 208.288 17.2577C207.613 17.2577 207.012 17.4043 206.484 17.6977C205.97 17.991 205.56 18.4163 205.252 18.9737C204.944 19.5163 204.79 20.169 204.79 20.9317C204.79 21.6797 204.944 22.3323 205.252 22.8897C205.56 23.447 205.97 23.8723 206.484 24.1657C207.012 24.459 207.606 24.6057 208.266 24.6057ZM222.137 26.9597C221.14 26.9597 220.26 26.7763 219.497 26.4097C218.735 26.0283 218.141 25.4563 217.715 24.6937C217.29 23.9163 217.077 22.941 217.077 21.7677V15.0577H219.827V21.3937C219.827 22.4497 220.062 23.2417 220.531 23.7697C221.015 24.283 221.697 24.5397 222.577 24.5397C223.223 24.5397 223.78 24.4077 224.249 24.1437C224.733 23.8797 225.107 23.4837 225.371 22.9557C225.65 22.4277 225.789 21.775 225.789 20.9977V15.0577H228.539V26.8057H225.921V23.6377L226.383 24.6057C225.987 25.3683 225.408 25.955 224.645 26.3657C223.883 26.7617 223.047 26.9597 222.137 26.9597ZM238.594 26.8057V14.3977C238.594 13.1657 238.953 12.183 239.672 11.4497C240.405 10.7017 241.447 10.3277 242.796 10.3277C243.28 10.3277 243.735 10.379 244.16 10.4817C244.6 10.5843 244.967 10.7457 245.26 10.9657L244.512 13.0337C244.307 12.8723 244.072 12.755 243.808 12.6817C243.544 12.5937 243.273 12.5497 242.994 12.5497C242.422 12.5497 241.989 12.711 241.696 13.0337C241.403 13.3417 241.256 13.811 241.256 14.4417V15.7617L241.344 16.9937V26.8057H238.594ZM236.658 17.3457V15.1457H244.49V17.3457H236.658ZM251.449 26.9597C250.247 26.9597 249.176 26.703 248.237 26.1897C247.299 25.6617 246.558 24.943 246.015 24.0337C245.473 23.1243 245.201 22.0903 245.201 20.9317C245.201 19.7583 245.473 18.7243 246.015 17.8297C246.558 16.9203 247.299 16.209 248.237 15.6957C249.176 15.1823 250.247 14.9257 251.449 14.9257C252.667 14.9257 253.745 15.1823 254.683 15.6957C255.637 16.209 256.377 16.913 256.905 17.8077C257.448 18.7023 257.719 19.7437 257.719 20.9317C257.719 22.0903 257.448 23.1243 256.905 24.0337C256.377 24.943 255.637 25.6617 254.683 26.1897C253.745 26.703 252.667 26.9597 251.449 26.9597ZM251.449 24.6057C252.124 24.6057 252.725 24.459 253.253 24.1657C253.781 23.8723 254.192 23.447 254.485 22.8897C254.793 22.3323 254.947 21.6797 254.947 20.9317C254.947 20.169 254.793 19.5163 254.485 18.9737C254.192 18.4163 253.781 17.991 253.253 17.6977C252.725 17.4043 252.131 17.2577 251.471 17.2577C250.797 17.2577 250.195 17.4043 249.667 17.6977C249.154 17.991 248.743 18.4163 248.435 18.9737C248.127 19.5163 247.973 20.169 247.973 20.9317C247.973 21.6797 248.127 22.3323 248.435 22.8897C248.743 23.447 249.154 23.8723 249.667 24.1657C250.195 24.459 250.789 24.6057 251.449 24.6057ZM260.349 26.8057V15.0577H262.967V18.2917L262.659 17.3457C263.011 16.5537 263.561 15.9523 264.309 15.5417C265.072 15.131 266.018 14.9257 267.147 14.9257V17.5437C267.03 17.5143 266.92 17.4997 266.817 17.4997C266.714 17.485 266.612 17.4777 266.509 17.4777C265.468 17.4777 264.639 17.7857 264.023 18.4017C263.407 19.003 263.099 19.905 263.099 21.1077V26.8057H260.349ZM276.635 31.2277C276.063 31.2277 275.491 31.1323 274.919 30.9417C274.347 30.751 273.871 30.487 273.489 30.1497L274.589 28.1257C274.868 28.375 275.183 28.573 275.535 28.7197C275.887 28.8663 276.247 28.9397 276.613 28.9397C277.112 28.9397 277.515 28.815 277.823 28.5657C278.131 28.3163 278.417 27.8983 278.681 27.3117L279.363 25.7717L279.583 25.4417L284.027 15.0577H286.667L281.167 27.7517C280.801 28.6317 280.39 29.3283 279.935 29.8417C279.495 30.355 278.997 30.7143 278.439 30.9197C277.897 31.125 277.295 31.2277 276.635 31.2277ZM279.055 27.2237L273.753 15.0577H276.613L280.925 25.1997L279.055 27.2237ZM293.344 26.9597C292.141 26.9597 291.07 26.703 290.132 26.1897C289.193 25.6617 288.452 24.943 287.91 24.0337C287.367 23.1243 287.096 22.0903 287.096 20.9317C287.096 19.7583 287.367 18.7243 287.91 17.8297C288.452 16.9203 289.193 16.209 290.132 15.6957C291.07 15.1823 292.141 14.9257 293.344 14.9257C294.561 14.9257 295.639 15.1823 296.578 15.6957C297.531 16.209 298.272 16.913 298.8 17.8077C299.342 18.7023 299.614 19.7437 299.614 20.9317C299.614 22.0903 299.342 23.1243 298.8 24.0337C298.272 24.943 297.531 25.6617 296.578 26.1897C295.639 26.703 294.561 26.9597 293.344 26.9597ZM293.344 24.6057C294.018 24.6057 294.62 24.459 295.148 24.1657C295.676 23.8723 296.086 23.447 296.38 22.8897C296.688 22.3323 296.842 21.6797 296.842 20.9317C296.842 20.169 296.688 19.5163 296.38 18.9737C296.086 18.4163 295.676 17.991 295.148 17.6977C294.62 17.4043 294.026 17.2577 293.366 17.2577C292.691 17.2577 292.09 17.4043 291.562 17.6977C291.048 17.991 290.638 18.4163 290.33 18.9737C290.022 19.5163 289.868 20.169 289.868 20.9317C289.868 21.6797 290.022 22.3323 290.33 22.8897C290.638 23.447 291.048 23.8723 291.562 24.1657C292.09 24.459 292.684 24.6057 293.344 24.6057ZM307.215 26.9597C306.218 26.9597 305.338 26.7763 304.575 26.4097C303.813 26.0283 303.219 25.4563 302.793 24.6937C302.368 23.9163 302.155 22.941 302.155 21.7677V15.0577H304.905V21.3937C304.905 22.4497 305.14 23.2417 305.609 23.7697C306.093 24.283 306.775 24.5397 307.655 24.5397C308.301 24.5397 308.858 24.4077 309.327 24.1437C309.811 23.8797 310.185 23.4837 310.449 22.9557C310.728 22.4277 310.867 21.775 310.867 20.9977V15.0577H313.617V26.8057H310.999V23.6377L311.461 24.6057C311.065 25.3683 310.486 25.955 309.723 26.3657C308.961 26.7617 308.125 26.9597 307.215 26.9597ZM317.218 26.8057V15.0577H319.836V18.2917L319.528 17.3457C319.88 16.5537 320.43 15.9523 321.178 15.5417C321.941 15.131 322.887 14.9257 324.016 14.9257V17.5437C323.899 17.5143 323.789 17.4997 323.686 17.4997C323.583 17.485 323.481 17.4777 323.378 17.4777C322.337 17.4777 321.508 17.7857 320.892 18.4017C320.276 19.003 319.968 19.905 319.968 21.1077V26.8057H317.218ZM336.166 26.9597C335.184 26.9597 334.238 26.835 333.328 26.5857C332.434 26.3217 331.722 26.0063 331.194 25.6397L332.25 23.5497C332.778 23.887 333.409 24.1657 334.142 24.3857C334.876 24.6057 335.609 24.7157 336.342 24.7157C337.208 24.7157 337.831 24.5983 338.212 24.3637C338.608 24.129 338.806 23.8137 338.806 23.4177C338.806 23.095 338.674 22.853 338.41 22.6917C338.146 22.5157 337.802 22.3837 337.376 22.2957C336.951 22.2077 336.474 22.127 335.946 22.0537C335.433 21.9803 334.912 21.885 334.384 21.7677C333.871 21.6357 333.402 21.4523 332.976 21.2177C332.551 20.9683 332.206 20.6383 331.942 20.2277C331.678 19.817 331.546 19.2743 331.546 18.5997C331.546 17.8517 331.759 17.2063 332.184 16.6637C332.61 16.1063 333.204 15.681 333.966 15.3877C334.744 15.0797 335.66 14.9257 336.716 14.9257C337.508 14.9257 338.308 15.0137 339.114 15.1897C339.921 15.3657 340.588 15.615 341.116 15.9377L340.06 18.0277C339.503 17.6903 338.938 17.463 338.366 17.3457C337.809 17.2137 337.252 17.1477 336.694 17.1477C335.858 17.1477 335.235 17.2723 334.824 17.5217C334.428 17.771 334.23 18.0863 334.23 18.4677C334.23 18.8197 334.362 19.0837 334.626 19.2597C334.89 19.4357 335.235 19.575 335.66 19.6777C336.086 19.7803 336.555 19.8683 337.068 19.9417C337.596 20.0003 338.117 20.0957 338.63 20.2277C339.144 20.3597 339.613 20.543 340.038 20.7777C340.478 20.9977 340.83 21.313 341.094 21.7237C341.358 22.1343 341.49 22.6697 341.49 23.3297C341.49 24.063 341.27 24.701 340.83 25.2437C340.405 25.7863 339.796 26.2117 339.004 26.5197C338.212 26.813 337.266 26.9597 336.166 26.9597ZM348.831 26.9597C347.833 26.9597 346.953 26.7763 346.191 26.4097C345.428 26.0283 344.834 25.4563 344.409 24.6937C343.983 23.9163 343.771 22.941 343.771 21.7677V15.0577H346.521V21.3937C346.521 22.4497 346.755 23.2417 347.225 23.7697C347.709 24.283 348.391 24.5397 349.271 24.5397C349.916 24.5397 350.473 24.4077 350.943 24.1437C351.427 23.8797 351.801 23.4837 352.065 22.9557C352.343 22.4277 352.483 21.775 352.483 20.9977V15.0577H355.233V26.8057H352.615V23.6377L353.077 24.6057C352.681 25.3683 352.101 25.955 351.339 26.3657C350.576 26.7617 349.74 26.9597 348.831 26.9597ZM365.345 26.9597C364.348 26.9597 363.461 26.7397 362.683 26.2997C361.906 25.8597 361.29 25.1997 360.835 24.3197C360.395 23.425 360.175 22.2957 360.175 20.9317C360.175 19.553 360.403 18.4237 360.857 17.5437C361.327 16.6637 361.95 16.011 362.727 15.5857C363.519 15.1457 364.392 14.9257 365.345 14.9257C366.504 14.9257 367.523 15.175 368.403 15.6737C369.298 16.1723 370.002 16.869 370.515 17.7637C371.043 18.6583 371.307 19.7143 371.307 20.9317C371.307 22.149 371.043 23.205 370.515 24.0997C370.002 24.9943 369.298 25.6983 368.403 26.2117C367.523 26.7103 366.504 26.9597 365.345 26.9597ZM358.833 26.8057V10.4817H361.583V17.7857L361.363 20.9097L361.451 24.0337V26.8057H358.833ZM365.037 24.6057C365.697 24.6057 366.284 24.459 366.797 24.1657C367.325 23.8723 367.743 23.447 368.051 22.8897C368.359 22.3323 368.513 21.6797 368.513 20.9317C368.513 20.169 368.359 19.5163 368.051 18.9737C367.743 18.4163 367.325 17.991 366.797 17.6977C366.284 17.4043 365.697 17.2577 365.037 17.2577C364.377 17.2577 363.783 17.4043 363.255 17.6977C362.727 17.991 362.309 18.4163 362.001 18.9737C361.693 19.5163 361.539 20.169 361.539 20.9317C361.539 21.6797 361.693 22.3323 362.001 22.8897C362.309 23.447 362.727 23.8723 363.255 24.1657C363.783 24.459 364.377 24.6057 365.037 24.6057ZM388.743 14.9257C389.682 14.9257 390.511 15.109 391.229 15.4757C391.963 15.8423 392.535 16.407 392.945 17.1697C393.356 17.9177 393.561 18.8857 393.561 20.0737V26.8057H390.811V20.4257C390.811 19.3843 390.584 18.607 390.129 18.0937C389.675 17.5803 389.022 17.3237 388.171 17.3237C387.57 17.3237 387.035 17.4557 386.565 17.7197C386.111 17.9837 385.751 18.3723 385.487 18.8857C385.238 19.399 385.113 20.0517 385.113 20.8437V26.8057H382.363V20.4257C382.363 19.3843 382.136 18.607 381.681 18.0937C381.227 17.5803 380.574 17.3237 379.723 17.3237C379.122 17.3237 378.587 17.4557 378.117 17.7197C377.663 17.9837 377.303 18.3723 377.039 18.8857C376.79 19.399 376.665 20.0517 376.665 20.8437V26.8057H373.915V15.0577H376.533V18.1817L376.071 17.2577C376.467 16.495 377.039 15.9157 377.787 15.5197C378.55 15.1237 379.415 14.9257 380.383 14.9257C381.483 14.9257 382.437 15.197 383.243 15.7397C384.065 16.2823 384.607 17.1037 384.871 18.2037L383.793 17.8297C384.175 16.9497 384.805 16.2457 385.685 15.7177C386.565 15.1897 387.585 14.9257 388.743 14.9257ZM397.075 26.8057V15.0577H399.825V26.8057H397.075ZM398.461 13.1217C397.948 13.1217 397.523 12.9603 397.185 12.6377C396.863 12.315 396.701 11.9263 396.701 11.4717C396.701 11.0023 396.863 10.6137 397.185 10.3057C397.523 9.983 397.948 9.82166 398.461 9.82166C398.975 9.82166 399.393 9.97566 399.715 10.2837C400.053 10.577 400.221 10.951 400.221 11.4057C400.221 11.8897 400.06 12.3003 399.737 12.6377C399.415 12.9603 398.989 13.1217 398.461 13.1217ZM407.065 26.9597C406.082 26.9597 405.136 26.835 404.227 26.5857C403.332 26.3217 402.621 26.0063 402.093 25.6397L403.149 23.5497C403.677 23.887 404.308 24.1657 405.041 24.3857C405.774 24.6057 406.508 24.7157 407.241 24.7157C408.106 24.7157 408.73 24.5983 409.111 24.3637C409.507 24.129 409.705 23.8137 409.705 23.4177C409.705 23.095 409.573 22.853 409.309 22.6917C409.045 22.5157 408.7 22.3837 408.275 22.2957C407.85 22.2077 407.373 22.127 406.845 22.0537C406.332 21.9803 405.811 21.885 405.283 21.7677C404.77 21.6357 404.3 21.4523 403.875 21.2177C403.45 20.9683 403.105 20.6383 402.841 20.2277C402.577 19.817 402.445 19.2743 402.445 18.5997C402.445 17.8517 402.658 17.2063 403.083 16.6637C403.508 16.1063 404.102 15.681 404.865 15.3877C405.642 15.0797 406.559 14.9257 407.615 14.9257C408.407 14.9257 409.206 15.0137 410.013 15.1897C410.82 15.3657 411.487 15.615 412.015 15.9377L410.959 18.0277C410.402 17.6903 409.837 17.463 409.265 17.3457C408.708 17.2137 408.15 17.1477 407.593 17.1477C406.757 17.1477 406.134 17.2723 405.723 17.5217C405.327 17.771 405.129 18.0863 405.129 18.4677C405.129 18.8197 405.261 19.0837 405.525 19.2597C405.789 19.4357 406.134 19.575 406.559 19.6777C406.984 19.7803 407.454 19.8683 407.967 19.9417C408.495 20.0003 409.016 20.0957 409.529 20.2277C410.042 20.3597 410.512 20.543 410.937 20.7777C411.377 20.9977 411.729 21.313 411.993 21.7237C412.257 22.1343 412.389 22.6697 412.389 23.3297C412.389 24.063 412.169 24.701 411.729 25.2437C411.304 25.7863 410.695 26.2117 409.903 26.5197C409.111 26.813 408.165 26.9597 407.065 26.9597ZM418.387 26.9597C417.404 26.9597 416.458 26.835 415.549 26.5857C414.654 26.3217 413.943 26.0063 413.415 25.6397L414.471 23.5497C414.999 23.887 415.63 24.1657 416.363 24.3857C417.096 24.6057 417.83 24.7157 418.563 24.7157C419.428 24.7157 420.052 24.5983 420.433 24.3637C420.829 24.129 421.027 23.8137 421.027 23.4177C421.027 23.095 420.895 22.853 420.631 22.6917C420.367 22.5157 420.022 22.3837 419.597 22.2957C419.172 22.2077 418.695 22.127 418.167 22.0537C417.654 21.9803 417.133 21.885 416.605 21.7677C416.092 21.6357 415.622 21.4523 415.197 21.2177C414.772 20.9683 414.427 20.6383 414.163 20.2277C413.899 19.817 413.767 19.2743 413.767 18.5997C413.767 17.8517 413.98 17.2063 414.405 16.6637C414.83 16.1063 415.424 15.681 416.187 15.3877C416.964 15.0797 417.881 14.9257 418.937 14.9257C419.729 14.9257 420.528 15.0137 421.335 15.1897C422.142 15.3657 422.809 15.615 423.337 15.9377L422.281 18.0277C421.724 17.6903 421.159 17.463 420.587 17.3457C420.03 17.2137 419.472 17.1477 418.915 17.1477C418.079 17.1477 417.456 17.2723 417.045 17.5217C416.649 17.771 416.451 18.0863 416.451 18.4677C416.451 18.8197 416.583 19.0837 416.847 19.2597C417.111 19.4357 417.456 19.575 417.881 19.6777C418.306 19.7803 418.776 19.8683 419.289 19.9417C419.817 20.0003 420.338 20.0957 420.851 20.2277C421.364 20.3597 421.834 20.543 422.259 20.7777C422.699 20.9977 423.051 21.313 423.315 21.7237C423.579 22.1343 423.711 22.6697 423.711 23.3297C423.711 24.063 423.491 24.701 423.051 25.2437C422.626 25.7863 422.017 26.2117 421.225 26.5197C420.433 26.813 419.487 26.9597 418.387 26.9597ZM426.079 26.8057V15.0577H428.829V26.8057H426.079ZM427.465 13.1217C426.952 13.1217 426.527 12.9603 426.189 12.6377C425.867 12.315 425.705 11.9263 425.705 11.4717C425.705 11.0023 425.867 10.6137 426.189 10.3057C426.527 9.983 426.952 9.82166 427.465 9.82166C427.979 9.82166 428.397 9.97566 428.719 10.2837C429.057 10.577 429.225 10.951 429.225 11.4057C429.225 11.8897 429.064 12.3003 428.741 12.6377C428.419 12.9603 427.993 13.1217 427.465 13.1217ZM437.719 26.9597C436.516 26.9597 435.445 26.703 434.507 26.1897C433.568 25.6617 432.827 24.943 432.285 24.0337C431.742 23.1243 431.471 22.0903 431.471 20.9317C431.471 19.7583 431.742 18.7243 432.285 17.8297C432.827 16.9203 433.568 16.209 434.507 15.6957C435.445 15.1823 436.516 14.9257 437.719 14.9257C438.936 14.9257 440.014 15.1823 440.953 15.6957C441.906 16.209 442.647 16.913 443.175 17.8077C443.717 18.7023 443.989 19.7437 443.989 20.9317C443.989 22.0903 443.717 23.1243 443.175 24.0337C442.647 24.943 441.906 25.6617 440.953 26.1897C440.014 26.703 438.936 26.9597 437.719 26.9597ZM437.719 24.6057C438.393 24.6057 438.995 24.459 439.523 24.1657C440.051 23.8723 440.461 23.447 440.755 22.8897C441.063 22.3323 441.217 21.6797 441.217 20.9317C441.217 20.169 441.063 19.5163 440.755 18.9737C440.461 18.4163 440.051 17.991 439.523 17.6977C438.995 17.4043 438.401 17.2577 437.741 17.2577C437.066 17.2577 436.465 17.4043 435.937 17.6977C435.423 17.991 435.013 18.4163 434.705 18.9737C434.397 19.5163 434.243 20.169 434.243 20.9317C434.243 21.6797 434.397 22.3323 434.705 22.8897C435.013 23.447 435.423 23.8723 435.937 24.1657C436.465 24.459 437.059 24.6057 437.719 24.6057ZM453.284 14.9257C454.223 14.9257 455.059 15.109 455.792 15.4757C456.54 15.8423 457.127 16.407 457.552 17.1697C457.978 17.9177 458.19 18.8857 458.19 20.0737V26.8057H455.44V20.4257C455.44 19.3843 455.191 18.607 454.692 18.0937C454.208 17.5803 453.526 17.3237 452.646 17.3237C452.001 17.3237 451.429 17.4557 450.93 17.7197C450.432 17.9837 450.043 18.3797 449.764 18.9077C449.5 19.421 449.368 20.0737 449.368 20.8657V26.8057H446.618V15.0577H449.236V18.2257L448.774 17.2577C449.185 16.5097 449.779 15.9377 450.556 15.5417C451.348 15.131 452.258 14.9257 453.284 14.9257ZM460.953 30.1277L462.229 25.2657L462.603 26.8937C462.09 26.8937 461.657 26.7397 461.305 26.4317C460.968 26.109 460.799 25.6763 460.799 25.1337C460.799 24.5763 460.968 24.1363 461.305 23.8137C461.657 23.4763 462.082 23.3077 462.581 23.3077C463.094 23.3077 463.52 23.4763 463.857 23.8137C464.194 24.151 464.363 24.591 464.363 25.1337C464.363 25.2803 464.348 25.4417 464.319 25.6177C464.29 25.779 464.238 25.9697 464.165 26.1897C464.106 26.4097 464.004 26.6883 463.857 27.0257L462.735 30.1277H460.953ZM121.042 48.8057V46.4297L120.888 45.9237V41.7657C120.888 40.959 120.646 40.3357 120.162 39.8957C119.678 39.441 118.945 39.2137 117.962 39.2137C117.302 39.2137 116.649 39.3163 116.004 39.5217C115.373 39.727 114.838 40.013 114.398 40.3797L113.32 38.3777C113.951 37.8937 114.699 37.5343 115.564 37.2997C116.444 37.0503 117.353 36.9257 118.292 36.9257C119.993 36.9257 121.306 37.3363 122.23 38.1577C123.169 38.9643 123.638 40.2183 123.638 41.9197V48.8057H121.042ZM117.346 48.9597C116.466 48.9597 115.696 48.813 115.036 48.5197C114.376 48.2117 113.863 47.7937 113.496 47.2657C113.144 46.723 112.968 46.1143 112.968 45.4397C112.968 44.7797 113.122 44.1857 113.43 43.6577C113.753 43.1297 114.273 42.7117 114.992 42.4037C115.711 42.0957 116.664 41.9417 117.852 41.9417H121.262V43.7677H118.05C117.111 43.7677 116.481 43.9217 116.158 44.2297C115.835 44.523 115.674 44.8897 115.674 45.3297C115.674 45.8283 115.872 46.2243 116.268 46.5177C116.664 46.811 117.214 46.9577 117.918 46.9577C118.593 46.9577 119.194 46.8037 119.722 46.4957C120.265 46.1877 120.653 45.733 120.888 45.1317L121.35 46.7817C121.086 47.471 120.609 48.0063 119.92 48.3877C119.245 48.769 118.387 48.9597 117.346 48.9597ZM138.285 49.0257C137.083 49.0257 135.931 48.857 134.831 48.5197C133.731 48.1677 132.859 47.7203 132.213 47.1777L133.203 44.9557C133.819 45.4397 134.582 45.843 135.491 46.1657C136.401 46.4883 137.332 46.6497 138.285 46.6497C139.092 46.6497 139.745 46.5617 140.243 46.3857C140.742 46.2097 141.109 45.975 141.343 45.6817C141.578 45.3737 141.695 45.029 141.695 44.6477C141.695 44.1783 141.527 43.8043 141.189 43.5257C140.852 43.2323 140.412 43.005 139.869 42.8437C139.341 42.6677 138.747 42.5063 138.087 42.3597C137.442 42.213 136.789 42.0443 136.129 41.8537C135.484 41.6483 134.89 41.3917 134.347 41.0837C133.819 40.761 133.387 40.3357 133.049 39.8077C132.712 39.2797 132.543 38.605 132.543 37.7837C132.543 36.9477 132.763 36.185 133.203 35.4957C133.658 34.7917 134.34 34.2343 135.249 33.8237C136.173 33.3983 137.339 33.1857 138.747 33.1857C139.671 33.1857 140.588 33.303 141.497 33.5377C142.407 33.7723 143.199 34.1097 143.873 34.5497L142.971 36.7717C142.282 36.361 141.571 36.0603 140.837 35.8697C140.104 35.6643 139.4 35.5617 138.725 35.5617C137.933 35.5617 137.288 35.657 136.789 35.8477C136.305 36.0383 135.946 36.2877 135.711 36.5957C135.491 36.9037 135.381 37.2557 135.381 37.6517C135.381 38.121 135.543 38.5023 135.865 38.7957C136.203 39.0743 136.635 39.2943 137.163 39.4557C137.706 39.617 138.307 39.7783 138.967 39.9397C139.627 40.0863 140.28 40.255 140.925 40.4457C141.585 40.6363 142.179 40.8857 142.707 41.1937C143.25 41.5017 143.683 41.9197 144.005 42.4477C144.343 42.9757 144.511 43.643 144.511 44.4497C144.511 45.271 144.284 46.0337 143.829 46.7377C143.389 47.427 142.707 47.9843 141.783 48.4097C140.859 48.8203 139.693 49.0257 138.285 49.0257ZM147.083 48.8057V32.4817H149.833V48.8057H147.083ZM158.723 48.9597C157.52 48.9597 156.449 48.703 155.511 48.1897C154.572 47.6617 153.831 46.943 153.289 46.0337C152.746 45.1243 152.475 44.0903 152.475 42.9317C152.475 41.7583 152.746 40.7243 153.289 39.8297C153.831 38.9203 154.572 38.209 155.511 37.6957C156.449 37.1823 157.52 36.9257 158.723 36.9257C159.94 36.9257 161.018 37.1823 161.957 37.6957C162.91 38.209 163.651 38.913 164.179 39.8077C164.721 40.7023 164.993 41.7437 164.993 42.9317C164.993 44.0903 164.721 45.1243 164.179 46.0337C163.651 46.943 162.91 47.6617 161.957 48.1897C161.018 48.703 159.94 48.9597 158.723 48.9597ZM158.723 46.6057C159.397 46.6057 159.999 46.459 160.527 46.1657C161.055 45.8723 161.465 45.447 161.759 44.8897C162.067 44.3323 162.221 43.6797 162.221 42.9317C162.221 42.169 162.067 41.5163 161.759 40.9737C161.465 40.4163 161.055 39.991 160.527 39.6977C159.999 39.4043 159.405 39.2577 158.745 39.2577C158.07 39.2577 157.469 39.4043 156.941 39.6977C156.427 39.991 156.017 40.4163 155.709 40.9737C155.401 41.5163 155.247 42.169 155.247 42.9317C155.247 43.6797 155.401 44.3323 155.709 44.8897C156.017 45.447 156.427 45.8723 156.941 46.1657C157.469 46.459 158.063 46.6057 158.723 46.6057ZM172.044 48.9597C170.754 48.9597 169.756 48.6297 169.052 47.9697C168.348 47.295 167.996 46.305 167.996 44.9997V34.4617H170.746V44.9337C170.746 45.491 170.886 45.9237 171.164 46.2317C171.458 46.5397 171.861 46.6937 172.374 46.6937C172.99 46.6937 173.504 46.5323 173.914 46.2097L174.684 48.1677C174.362 48.4317 173.966 48.6297 173.496 48.7617C173.027 48.8937 172.543 48.9597 172.044 48.9597ZM166.06 39.3457V37.1457H173.892V39.3457H166.06ZM182.082 48.9597C180.777 48.9597 179.633 48.703 178.65 48.1897C177.682 47.6617 176.927 46.943 176.384 46.0337C175.856 45.1243 175.592 44.0903 175.592 42.9317C175.592 41.7583 175.849 40.7243 176.362 39.8297C176.89 38.9203 177.609 38.209 178.518 37.6957C179.442 37.1823 180.491 36.9257 181.664 36.9257C182.808 36.9257 183.827 37.175 184.722 37.6737C185.617 38.1723 186.321 38.8763 186.834 39.7857C187.347 40.695 187.604 41.7657 187.604 42.9977C187.604 43.115 187.597 43.247 187.582 43.3937C187.582 43.5403 187.575 43.6797 187.56 43.8117H177.77V41.9857H186.108L185.03 42.5577C185.045 41.883 184.905 41.289 184.612 40.7757C184.319 40.2623 183.915 39.859 183.402 39.5657C182.903 39.2723 182.324 39.1257 181.664 39.1257C180.989 39.1257 180.395 39.2723 179.882 39.5657C179.383 39.859 178.987 40.2697 178.694 40.7977C178.415 41.311 178.276 41.9197 178.276 42.6237V43.0637C178.276 43.7677 178.437 44.391 178.76 44.9337C179.083 45.4763 179.537 45.8943 180.124 46.1877C180.711 46.481 181.385 46.6277 182.148 46.6277C182.808 46.6277 183.402 46.525 183.93 46.3197C184.458 46.1143 184.927 45.7917 185.338 45.3517L186.812 47.0457C186.284 47.6617 185.617 48.1383 184.81 48.4757C184.018 48.7983 183.109 48.9597 182.082 48.9597ZM190.245 48.8057V37.0577H192.863V40.2917L192.555 39.3457C192.907 38.5537 193.457 37.9523 194.205 37.5417C194.968 37.131 195.914 36.9257 197.043 36.9257V39.5437C196.926 39.5143 196.816 39.4997 196.713 39.4997C196.611 39.485 196.508 39.4777 196.405 39.4777C195.364 39.4777 194.535 39.7857 193.919 40.4017C193.303 41.003 192.995 41.905 192.995 43.1077V48.8057H190.245ZM199.376 48.8057V37.0577H201.994V40.2917L201.686 39.3457C202.038 38.5537 202.588 37.9523 203.336 37.5417C204.099 37.131 205.045 36.9257 206.174 36.9257V39.5437C206.057 39.5143 205.947 39.4997 205.844 39.4997C205.742 39.485 205.639 39.4777 205.536 39.4777C204.495 39.4777 203.666 39.7857 203.05 40.4017C202.434 41.003 202.126 41.905 202.126 43.1077V48.8057H199.376ZM214.907 48.8057V46.4297L214.753 45.9237V41.7657C214.753 40.959 214.511 40.3357 214.027 39.8957C213.543 39.441 212.81 39.2137 211.827 39.2137C211.167 39.2137 210.515 39.3163 209.869 39.5217C209.239 39.727 208.703 40.013 208.263 40.3797L207.185 38.3777C207.816 37.8937 208.564 37.5343 209.429 37.2997C210.309 37.0503 211.219 36.9257 212.157 36.9257C213.859 36.9257 215.171 37.3363 216.095 38.1577C217.034 38.9643 217.503 40.2183 217.503 41.9197V48.8057H214.907ZM211.211 48.9597C210.331 48.9597 209.561 48.813 208.901 48.5197C208.241 48.2117 207.728 47.7937 207.361 47.2657C207.009 46.723 206.833 46.1143 206.833 45.4397C206.833 44.7797 206.987 44.1857 207.295 43.6577C207.618 43.1297 208.139 42.7117 208.857 42.4037C209.576 42.0957 210.529 41.9417 211.717 41.9417H215.127V43.7677H211.915C210.977 43.7677 210.346 43.9217 210.023 44.2297C209.701 44.523 209.539 44.8897 209.539 45.3297C209.539 45.8283 209.737 46.2243 210.133 46.5177C210.529 46.811 211.079 46.9577 211.783 46.9577C212.458 46.9577 213.059 46.8037 213.587 46.4957C214.13 46.1877 214.519 45.733 214.753 45.1317L215.215 46.7817C214.951 47.471 214.475 48.0063 213.785 48.3877C213.111 48.769 212.253 48.9597 211.211 48.9597ZM227.113 48.8057V37.0577H229.731V40.2917L229.423 39.3457C229.775 38.5537 230.325 37.9523 231.073 37.5417C231.835 37.131 232.781 36.9257 233.911 36.9257V39.5437C233.793 39.5143 233.683 39.4997 233.581 39.4997C233.478 39.485 233.375 39.4777 233.273 39.4777C232.231 39.4777 231.403 39.7857 230.787 40.4017C230.171 41.003 229.863 41.905 229.863 43.1077V48.8057H227.113ZM241.658 48.9597C240.353 48.9597 239.209 48.703 238.226 48.1897C237.258 47.6617 236.503 46.943 235.96 46.0337C235.432 45.1243 235.168 44.0903 235.168 42.9317C235.168 41.7583 235.425 40.7243 235.938 39.8297C236.466 38.9203 237.185 38.209 238.094 37.6957C239.018 37.1823 240.067 36.9257 241.24 36.9257C242.384 36.9257 243.403 37.175 244.298 37.6737C245.193 38.1723 245.897 38.8763 246.41 39.7857C246.923 40.695 247.18 41.7657 247.18 42.9977C247.18 43.115 247.173 43.247 247.158 43.3937C247.158 43.5403 247.151 43.6797 247.136 43.8117H237.346V41.9857H245.684L244.606 42.5577C244.621 41.883 244.481 41.289 244.188 40.7757C243.895 40.2623 243.491 39.859 242.978 39.5657C242.479 39.2723 241.9 39.1257 241.24 39.1257C240.565 39.1257 239.971 39.2723 239.458 39.5657C238.959 39.859 238.563 40.2697 238.27 40.7977C237.991 41.311 237.852 41.9197 237.852 42.6237V43.0637C237.852 43.7677 238.013 44.391 238.336 44.9337C238.659 45.4763 239.113 45.8943 239.7 46.1877C240.287 46.481 240.961 46.6277 241.724 46.6277C242.384 46.6277 242.978 46.525 243.506 46.3197C244.034 46.1143 244.503 45.7917 244.914 45.3517L246.388 47.0457C245.86 47.6617 245.193 48.1383 244.386 48.4757C243.594 48.7983 242.685 48.9597 241.658 48.9597ZM256.334 48.9597C255.38 48.9597 254.508 48.7397 253.716 48.2997C252.938 47.8597 252.315 47.1997 251.846 46.3197C251.391 45.425 251.164 44.2957 251.164 42.9317C251.164 41.553 251.384 40.4237 251.824 39.5437C252.278 38.6637 252.894 38.011 253.672 37.5857C254.449 37.1457 255.336 36.9257 256.334 36.9257C257.492 36.9257 258.512 37.175 259.392 37.6737C260.286 38.1723 260.99 38.869 261.504 39.7637C262.032 40.6583 262.296 41.7143 262.296 42.9317C262.296 44.149 262.032 45.2123 261.504 46.1217C260.99 47.0163 260.286 47.713 259.392 48.2117C258.512 48.7103 257.492 48.9597 256.334 48.9597ZM249.822 53.0737V37.0577H252.44V39.8297L252.352 42.9537L252.572 46.0777V53.0737H249.822ZM256.026 46.6057C256.686 46.6057 257.272 46.459 257.786 46.1657C258.314 45.8723 258.732 45.447 259.04 44.8897C259.348 44.3323 259.502 43.6797 259.502 42.9317C259.502 42.169 259.348 41.5163 259.04 40.9737C258.732 40.4163 258.314 39.991 257.786 39.6977C257.272 39.4043 256.686 39.2577 256.026 39.2577C255.366 39.2577 254.772 39.4043 254.244 39.6977C253.716 39.991 253.298 40.4163 252.99 40.9737C252.682 41.5163 252.528 42.169 252.528 42.9317C252.528 43.6797 252.682 44.3323 252.99 44.8897C253.298 45.447 253.716 45.8723 254.244 46.1657C254.772 46.459 255.366 46.6057 256.026 46.6057ZM264.904 48.8057V37.0577H267.522V40.2917L267.214 39.3457C267.566 38.5537 268.116 37.9523 268.864 37.5417C269.626 37.131 270.572 36.9257 271.702 36.9257V39.5437C271.584 39.5143 271.474 39.4997 271.372 39.4997C271.269 39.485 271.166 39.4777 271.064 39.4777C270.022 39.4777 269.194 39.7857 268.578 40.4017C267.962 41.003 267.654 41.905 267.654 43.1077V48.8057H264.904ZM279.449 48.9597C278.144 48.9597 277 48.703 276.017 48.1897C275.049 47.6617 274.294 46.943 273.751 46.0337C273.223 45.1243 272.959 44.0903 272.959 42.9317C272.959 41.7583 273.216 40.7243 273.729 39.8297C274.257 38.9203 274.976 38.209 275.885 37.6957C276.809 37.1823 277.858 36.9257 279.031 36.9257C280.175 36.9257 281.194 37.175 282.089 37.6737C282.984 38.1723 283.688 38.8763 284.201 39.7857C284.714 40.695 284.971 41.7657 284.971 42.9977C284.971 43.115 284.964 43.247 284.949 43.3937C284.949 43.5403 284.942 43.6797 284.927 43.8117H275.137V41.9857H283.475L282.397 42.5577C282.412 41.883 282.272 41.289 281.979 40.7757C281.686 40.2623 281.282 39.859 280.769 39.5657C280.27 39.2723 279.691 39.1257 279.031 39.1257C278.356 39.1257 277.762 39.2723 277.249 39.5657C276.75 39.859 276.354 40.2697 276.061 40.7977C275.782 41.311 275.643 41.9197 275.643 42.6237V43.0637C275.643 43.7677 275.804 44.391 276.127 44.9337C276.45 45.4763 276.904 45.8943 277.491 46.1877C278.078 46.481 278.752 46.6277 279.515 46.6277C280.175 46.6277 280.769 46.525 281.297 46.3197C281.825 46.1143 282.294 45.7917 282.705 45.3517L284.179 47.0457C283.651 47.6617 282.984 48.1383 282.177 48.4757C281.385 48.7983 280.476 48.9597 279.449 48.9597ZM291.243 48.9597C290.26 48.9597 289.314 48.835 288.405 48.5857C287.51 48.3217 286.799 48.0063 286.271 47.6397L287.327 45.5497C287.855 45.887 288.485 46.1657 289.219 46.3857C289.952 46.6057 290.685 46.7157 291.419 46.7157C292.284 46.7157 292.907 46.5983 293.289 46.3637C293.685 46.129 293.883 45.8137 293.883 45.4177C293.883 45.095 293.751 44.853 293.487 44.6917C293.223 44.5157 292.878 44.3837 292.453 44.2957C292.027 44.2077 291.551 44.127 291.023 44.0537C290.509 43.9803 289.989 43.885 289.461 43.7677C288.947 43.6357 288.478 43.4523 288.053 43.2177C287.627 42.9683 287.283 42.6383 287.019 42.2277C286.755 41.817 286.623 41.2743 286.623 40.5997C286.623 39.8517 286.835 39.2063 287.261 38.6637C287.686 38.1063 288.28 37.681 289.043 37.3877C289.82 37.0797 290.737 36.9257 291.793 36.9257C292.585 36.9257 293.384 37.0137 294.191 37.1897C294.997 37.3657 295.665 37.615 296.193 37.9377L295.137 40.0277C294.579 39.6903 294.015 39.463 293.443 39.3457C292.885 39.2137 292.328 39.1477 291.771 39.1477C290.935 39.1477 290.311 39.2723 289.901 39.5217C289.505 39.771 289.307 40.0863 289.307 40.4677C289.307 40.8197 289.439 41.0837 289.703 41.2597C289.967 41.4357 290.311 41.575 290.737 41.6777C291.162 41.7803 291.631 41.8683 292.145 41.9417C292.673 42.0003 293.193 42.0957 293.707 42.2277C294.22 42.3597 294.689 42.543 295.115 42.7777C295.555 42.9977 295.907 43.313 296.171 43.7237C296.435 44.1343 296.567 44.6697 296.567 45.3297C296.567 46.063 296.347 46.701 295.907 47.2437C295.481 47.7863 294.873 48.2117 294.081 48.5197C293.289 48.813 292.343 48.9597 291.243 48.9597ZM304.457 48.9597C303.152 48.9597 302.008 48.703 301.025 48.1897C300.057 47.6617 299.302 46.943 298.759 46.0337C298.231 45.1243 297.967 44.0903 297.967 42.9317C297.967 41.7583 298.224 40.7243 298.737 39.8297C299.265 38.9203 299.984 38.209 300.893 37.6957C301.817 37.1823 302.866 36.9257 304.039 36.9257C305.183 36.9257 306.202 37.175 307.097 37.6737C307.992 38.1723 308.696 38.8763 309.209 39.7857C309.722 40.695 309.979 41.7657 309.979 42.9977C309.979 43.115 309.972 43.247 309.957 43.3937C309.957 43.5403 309.95 43.6797 309.935 43.8117H300.145V41.9857H308.483L307.405 42.5577C307.42 41.883 307.28 41.289 306.987 40.7757C306.694 40.2623 306.29 39.859 305.777 39.5657C305.278 39.2723 304.699 39.1257 304.039 39.1257C303.364 39.1257 302.77 39.2723 302.257 39.5657C301.758 39.859 301.362 40.2697 301.069 40.7977C300.79 41.311 300.651 41.9197 300.651 42.6237V43.0637C300.651 43.7677 300.812 44.391 301.135 44.9337C301.458 45.4763 301.912 45.8943 302.499 46.1877C303.086 46.481 303.76 46.6277 304.523 46.6277C305.183 46.6277 305.777 46.525 306.305 46.3197C306.833 46.1143 307.302 45.7917 307.713 45.3517L309.187 47.0457C308.659 47.6617 307.992 48.1383 307.185 48.4757C306.393 48.7983 305.484 48.9597 304.457 48.9597ZM319.286 36.9257C320.225 36.9257 321.061 37.109 321.794 37.4757C322.542 37.8423 323.129 38.407 323.554 39.1697C323.98 39.9177 324.192 40.8857 324.192 42.0737V48.8057H321.442V42.4257C321.442 41.3843 321.193 40.607 320.694 40.0937C320.21 39.5803 319.528 39.3237 318.648 39.3237C318.003 39.3237 317.431 39.4557 316.932 39.7197C316.434 39.9837 316.045 40.3797 315.766 40.9077C315.502 41.421 315.37 42.0737 315.37 42.8657V48.8057H312.62V37.0577H315.238V40.2257L314.776 39.2577C315.187 38.5097 315.781 37.9377 316.558 37.5417C317.35 37.131 318.26 36.9257 319.286 36.9257ZM332.103 48.9597C330.812 48.9597 329.815 48.6297 329.111 47.9697C328.407 47.295 328.055 46.305 328.055 44.9997V34.4617H330.805V44.9337C330.805 45.491 330.944 45.9237 331.223 46.2317C331.516 46.5397 331.92 46.6937 332.433 46.6937C333.049 46.6937 333.562 46.5323 333.973 46.2097L334.743 48.1677C334.42 48.4317 334.024 48.6297 333.555 48.7617C333.086 48.8937 332.602 48.9597 332.103 48.9597ZM326.119 39.3457V37.1457H333.951V39.3457H326.119ZM344.243 48.8057V46.4297L344.089 45.9237V41.7657C344.089 40.959 343.847 40.3357 343.363 39.8957C342.879 39.441 342.146 39.2137 341.163 39.2137C340.503 39.2137 339.851 39.3163 339.205 39.5217C338.575 39.727 338.039 40.013 337.599 40.3797L336.521 38.3777C337.152 37.8937 337.9 37.5343 338.765 37.2997C339.645 37.0503 340.555 36.9257 341.493 36.9257C343.195 36.9257 344.507 37.3363 345.431 38.1577C346.37 38.9643 346.839 40.2183 346.839 41.9197V48.8057H344.243ZM340.547 48.9597C339.667 48.9597 338.897 48.813 338.237 48.5197C337.577 48.2117 337.064 47.7937 336.697 47.2657C336.345 46.723 336.169 46.1143 336.169 45.4397C336.169 44.7797 336.323 44.1857 336.631 43.6577C336.954 43.1297 337.475 42.7117 338.193 42.4037C338.912 42.0957 339.865 41.9417 341.053 41.9417H344.463V43.7677H341.251C340.313 43.7677 339.682 43.9217 339.359 44.2297C339.037 44.523 338.875 44.8897 338.875 45.3297C338.875 45.8283 339.073 46.2243 339.469 46.5177C339.865 46.811 340.415 46.9577 341.119 46.9577C341.794 46.9577 342.395 46.8037 342.923 46.4957C343.466 46.1877 343.855 45.733 344.089 45.1317L344.551 46.7817C344.287 47.471 343.811 48.0063 343.121 48.3877C342.447 48.769 341.589 48.9597 340.547 48.9597ZM354.79 48.9597C353.5 48.9597 352.502 48.6297 351.798 47.9697C351.094 47.295 350.742 46.305 350.742 44.9997V34.4617H353.492V44.9337C353.492 45.491 353.632 45.9237 353.91 46.2317C354.204 46.5397 354.607 46.6937 355.12 46.6937C355.736 46.6937 356.25 46.5323 356.66 46.2097L357.43 48.1677C357.108 48.4317 356.712 48.6297 356.242 48.7617C355.773 48.8937 355.289 48.9597 354.79 48.9597ZM348.806 39.3457V37.1457H356.638V39.3457H348.806ZM359.693 48.8057V37.0577H362.443V48.8057H359.693ZM361.079 35.1217C360.565 35.1217 360.14 34.9603 359.803 34.6377C359.48 34.315 359.319 33.9263 359.319 33.4717C359.319 33.0023 359.48 32.6137 359.803 32.3057C360.14 31.983 360.565 31.8217 361.079 31.8217C361.592 31.8217 362.01 31.9757 362.333 32.2837C362.67 32.577 362.839 32.951 362.839 33.4057C362.839 33.8897 362.677 34.3003 362.355 34.6377C362.032 34.9603 361.607 35.1217 361.079 35.1217ZM369.176 48.8057L364.138 37.0577H366.998L371.332 47.4197H369.924L374.412 37.0577H377.052L372.014 48.8057H369.176ZM383.971 48.9597C382.665 48.9597 381.521 48.703 380.539 48.1897C379.571 47.6617 378.815 46.943 378.273 46.0337C377.745 45.1243 377.481 44.0903 377.481 42.9317C377.481 41.7583 377.737 40.7243 378.251 39.8297C378.779 38.9203 379.497 38.209 380.407 37.6957C381.331 37.1823 382.379 36.9257 383.553 36.9257C384.697 36.9257 385.716 37.175 386.611 37.6737C387.505 38.1723 388.209 38.8763 388.723 39.7857C389.236 40.695 389.493 41.7657 389.493 42.9977C389.493 43.115 389.485 43.247 389.471 43.3937C389.471 43.5403 389.463 43.6797 389.449 43.8117H379.659V41.9857H387.997L386.919 42.5577C386.933 41.883 386.794 41.289 386.501 40.7757C386.207 40.2623 385.804 39.859 385.291 39.5657C384.792 39.2723 384.213 39.1257 383.553 39.1257C382.878 39.1257 382.284 39.2723 381.771 39.5657C381.272 39.859 380.876 40.2697 380.583 40.7977C380.304 41.311 380.165 41.9197 380.165 42.6237V43.0637C380.165 43.7677 380.326 44.391 380.649 44.9337C380.971 45.4763 381.426 45.8943 382.013 46.1877C382.599 46.481 383.274 46.6277 384.037 46.6277C384.697 46.6277 385.291 46.525 385.819 46.3197C386.347 46.1143 386.816 45.7917 387.227 45.3517L388.701 47.0457C388.173 47.6617 387.505 48.1383 386.699 48.4757C385.907 48.7983 384.997 48.9597 383.971 48.9597ZM400.81 48.8057L396.498 37.0577H399.094L402.79 47.4197H401.558L405.43 37.0577H407.74L411.502 47.4197H410.292L414.098 37.0577H416.54L412.206 48.8057H409.566L406.134 39.6317H406.948L403.45 48.8057H400.81ZM418.431 48.8057V37.0577H421.181V48.8057H418.431ZM419.817 35.1217C419.304 35.1217 418.878 34.9603 418.541 34.6377C418.218 34.315 418.057 33.9263 418.057 33.4717C418.057 33.0023 418.218 32.6137 418.541 32.3057C418.878 31.983 419.304 31.8217 419.817 31.8217C420.33 31.8217 420.748 31.9757 421.071 32.2837C421.408 32.577 421.577 32.951 421.577 33.4057C421.577 33.8897 421.416 34.3003 421.093 34.6377C420.77 34.9603 420.345 35.1217 419.817 35.1217ZM424.79 48.8057V32.4817H427.54V48.8057H424.79ZM431.15 48.8057V32.4817H433.9V48.8057H431.15ZM119.194 70.9597C117.962 70.9597 116.862 70.703 115.894 70.1897C114.941 69.6617 114.193 68.943 113.65 68.0337C113.107 67.1243 112.836 66.0903 112.836 64.9317C112.836 63.7583 113.107 62.7243 113.65 61.8297C114.193 60.9203 114.941 60.209 115.894 59.6957C116.862 59.1823 117.962 58.9257 119.194 58.9257C120.338 58.9257 121.343 59.1603 122.208 59.6297C123.088 60.0843 123.755 60.759 124.21 61.6537L122.098 62.8857C121.746 62.3283 121.313 61.9177 120.8 61.6537C120.301 61.3897 119.759 61.2577 119.172 61.2577C118.497 61.2577 117.889 61.4043 117.346 61.6977C116.803 61.991 116.378 62.4163 116.07 62.9737C115.762 63.5163 115.608 64.169 115.608 64.9317C115.608 65.6943 115.762 66.3543 116.07 66.9117C116.378 67.4543 116.803 67.8723 117.346 68.1657C117.889 68.459 118.497 68.6057 119.172 68.6057C119.759 68.6057 120.301 68.4737 120.8 68.2097C121.313 67.9457 121.746 67.535 122.098 66.9777L124.21 68.2097C123.755 69.0897 123.088 69.7717 122.208 70.2557C121.343 70.725 120.338 70.9597 119.194 70.9597ZM131.695 70.9597C130.493 70.9597 129.422 70.703 128.483 70.1897C127.545 69.6617 126.804 68.943 126.261 68.0337C125.719 67.1243 125.447 66.0903 125.447 64.9317C125.447 63.7583 125.719 62.7243 126.261 61.8297C126.804 60.9203 127.545 60.209 128.483 59.6957C129.422 59.1823 130.493 58.9257 131.695 58.9257C132.913 58.9257 133.991 59.1823 134.929 59.6957C135.883 60.209 136.623 60.913 137.151 61.8077C137.694 62.7023 137.965 63.7437 137.965 64.9317C137.965 66.0903 137.694 67.1243 137.151 68.0337C136.623 68.943 135.883 69.6617 134.929 70.1897C133.991 70.703 132.913 70.9597 131.695 70.9597ZM131.695 68.6057C132.37 68.6057 132.971 68.459 133.499 68.1657C134.027 67.8723 134.438 67.447 134.731 66.8897C135.039 66.3323 135.193 65.6797 135.193 64.9317C135.193 64.169 135.039 63.5163 134.731 62.9737C134.438 62.4163 134.027 61.991 133.499 61.6977C132.971 61.4043 132.377 61.2577 131.717 61.2577C131.043 61.2577 130.441 61.4043 129.913 61.6977C129.4 61.991 128.989 62.4163 128.681 62.9737C128.373 63.5163 128.219 64.169 128.219 64.9317C128.219 65.6797 128.373 66.3323 128.681 66.8897C128.989 67.447 129.4 67.8723 129.913 68.1657C130.441 68.459 131.035 68.6057 131.695 68.6057ZM147.261 58.9257C148.2 58.9257 149.036 59.109 149.769 59.4757C150.517 59.8423 151.104 60.407 151.529 61.1697C151.954 61.9177 152.167 62.8857 152.167 64.0737V70.8057H149.417V64.4257C149.417 63.3843 149.168 62.607 148.669 62.0937C148.185 61.5803 147.503 61.3237 146.623 61.3237C145.978 61.3237 145.406 61.4557 144.907 61.7197C144.408 61.9837 144.02 62.3797 143.741 62.9077C143.477 63.421 143.345 64.0737 143.345 64.8657V70.8057H140.595V59.0577H143.213V62.2257L142.751 61.2577C143.162 60.5097 143.756 59.9377 144.533 59.5417C145.325 59.131 146.234 58.9257 147.261 58.9257ZM160.078 70.9597C158.787 70.9597 157.79 70.6297 157.086 69.9697C156.382 69.295 156.03 68.305 156.03 66.9997V56.4617H158.78V66.9337C158.78 67.491 158.919 67.9237 159.198 68.2317C159.491 68.5397 159.894 68.6937 160.408 68.6937C161.024 68.6937 161.537 68.5323 161.948 68.2097L162.718 70.1677C162.395 70.4317 161.999 70.6297 161.53 70.7617C161.06 70.8937 160.576 70.9597 160.078 70.9597ZM154.094 61.3457V59.1457H161.926V61.3457H154.094ZM172.218 70.8057V68.4297L172.064 67.9237V63.7657C172.064 62.959 171.822 62.3357 171.338 61.8957C170.854 61.441 170.12 61.2137 169.138 61.2137C168.478 61.2137 167.825 61.3163 167.18 61.5217C166.549 61.727 166.014 62.013 165.574 62.3797L164.496 60.3777C165.126 59.8937 165.874 59.5343 166.74 59.2997C167.62 59.0503 168.529 58.9257 169.468 58.9257C171.169 58.9257 172.482 59.3363 173.406 60.1577C174.344 60.9643 174.814 62.2183 174.814 63.9197V70.8057H172.218ZM168.522 70.9597C167.642 70.9597 166.872 70.813 166.212 70.5197C165.552 70.2117 165.038 69.7937 164.672 69.2657C164.32 68.723 164.144 68.1143 164.144 67.4397C164.144 66.7797 164.298 66.1857 164.606 65.6577C164.928 65.1297 165.449 64.7117 166.168 64.4037C166.886 64.0957 167.84 63.9417 169.028 63.9417H172.438V65.7677H169.226C168.287 65.7677 167.656 65.9217 167.334 66.2297C167.011 66.523 166.85 66.8897 166.85 67.3297C166.85 67.8283 167.048 68.2243 167.444 68.5177C167.84 68.811 168.39 68.9577 169.094 68.9577C169.768 68.9577 170.37 68.8037 170.898 68.4957C171.44 68.1877 171.829 67.733 172.064 67.1317L172.526 68.7817C172.262 69.471 171.785 70.0063 171.096 70.3877C170.421 70.769 169.563 70.9597 168.522 70.9597ZM183.755 70.9597C182.523 70.9597 181.423 70.703 180.455 70.1897C179.501 69.6617 178.753 68.943 178.211 68.0337C177.668 67.1243 177.397 66.0903 177.397 64.9317C177.397 63.7583 177.668 62.7243 178.211 61.8297C178.753 60.9203 179.501 60.209 180.455 59.6957C181.423 59.1823 182.523 58.9257 183.755 58.9257C184.899 58.9257 185.903 59.1603 186.769 59.6297C187.649 60.0843 188.316 60.759 188.771 61.6537L186.659 62.8857C186.307 62.3283 185.874 61.9177 185.361 61.6537C184.862 61.3897 184.319 61.2577 183.733 61.2577C183.058 61.2577 182.449 61.4043 181.907 61.6977C181.364 61.991 180.939 62.4163 180.631 62.9737C180.323 63.5163 180.169 64.169 180.169 64.9317C180.169 65.6943 180.323 66.3543 180.631 66.9117C180.939 67.4543 181.364 67.8723 181.907 68.1657C182.449 68.459 183.058 68.6057 183.733 68.6057C184.319 68.6057 184.862 68.4737 185.361 68.2097C185.874 67.9457 186.307 67.535 186.659 66.9777L188.771 68.2097C188.316 69.0897 187.649 69.7717 186.769 70.2557C185.903 70.725 184.899 70.9597 183.755 70.9597ZM195.72 70.9597C194.429 70.9597 193.432 70.6297 192.728 69.9697C192.024 69.295 191.672 68.305 191.672 66.9997V56.4617H194.422V66.9337C194.422 67.491 194.561 67.9237 194.84 68.2317C195.133 68.5397 195.537 68.6937 196.05 68.6937C196.666 68.6937 197.179 68.5323 197.59 68.2097L198.36 70.1677C198.037 70.4317 197.641 70.6297 197.172 70.7617C196.703 70.8937 196.219 70.9597 195.72 70.9597ZM189.736 61.3457V59.1457H197.568V61.3457H189.736ZM207.67 75.2277C207.098 75.2277 206.526 75.1323 205.954 74.9417C205.382 74.751 204.906 74.487 204.524 74.1497L205.624 72.1257C205.903 72.375 206.218 72.573 206.57 72.7197C206.922 72.8663 207.282 72.9397 207.648 72.9397C208.147 72.9397 208.55 72.815 208.858 72.5657C209.166 72.3163 209.452 71.8983 209.716 71.3117L210.398 69.7717L210.618 69.4417L215.062 59.0577H217.702L212.202 71.7517C211.836 72.6317 211.425 73.3283 210.97 73.8417C210.53 74.355 210.032 74.7143 209.474 74.9197C208.932 75.125 208.33 75.2277 207.67 75.2277ZM210.09 71.2237L204.788 59.0577H207.648L211.96 69.1997L210.09 71.2237ZM224.379 70.9597C223.176 70.9597 222.106 70.703 221.167 70.1897C220.228 69.6617 219.488 68.943 218.945 68.0337C218.402 67.1243 218.131 66.0903 218.131 64.9317C218.131 63.7583 218.402 62.7243 218.945 61.8297C219.488 60.9203 220.228 60.209 221.167 59.6957C222.106 59.1823 223.176 58.9257 224.379 58.9257C225.596 58.9257 226.674 59.1823 227.613 59.6957C228.566 60.209 229.307 60.913 229.835 61.8077C230.378 62.7023 230.649 63.7437 230.649 64.9317C230.649 66.0903 230.378 67.1243 229.835 68.0337C229.307 68.943 228.566 69.6617 227.613 70.1897C226.674 70.703 225.596 70.9597 224.379 70.9597ZM224.379 68.6057C225.054 68.6057 225.655 68.459 226.183 68.1657C226.711 67.8723 227.122 67.447 227.415 66.8897C227.723 66.3323 227.877 65.6797 227.877 64.9317C227.877 64.169 227.723 63.5163 227.415 62.9737C227.122 62.4163 226.711 61.991 226.183 61.6977C225.655 61.4043 225.061 61.2577 224.401 61.2577C223.726 61.2577 223.125 61.4043 222.597 61.6977C222.084 61.991 221.673 62.4163 221.365 62.9737C221.057 63.5163 220.903 64.169 220.903 64.9317C220.903 65.6797 221.057 66.3323 221.365 66.8897C221.673 67.447 222.084 67.8723 222.597 68.1657C223.125 68.459 223.719 68.6057 224.379 68.6057ZM238.251 70.9597C237.253 70.9597 236.373 70.7763 235.611 70.4097C234.848 70.0283 234.254 69.4563 233.829 68.6937C233.403 67.9163 233.191 66.941 233.191 65.7677V59.0577H235.941V65.3937C235.941 66.4497 236.175 67.2417 236.645 67.7697C237.129 68.283 237.811 68.5397 238.691 68.5397C239.336 68.5397 239.893 68.4077 240.363 68.1437C240.847 67.8797 241.221 67.4837 241.485 66.9557C241.763 66.4277 241.903 65.775 241.903 64.9977V59.0577H244.653V70.8057H242.035V67.6377L242.497 68.6057C242.101 69.3683 241.521 69.955 240.759 70.3657C239.996 70.7617 239.16 70.9597 238.251 70.9597Z" fill="#4C4C4C"/>
</svg>
