<svg width="382" height="161" viewBox="0 0 382 161" fill="none" xmlns="http://www.w3.org/2000/svg">
<path d="M80.6978 144.439H92.174V149.665H80.6978V144.439ZM81.1922 154.185H94.1161V159.588H74.2712V134.87H93.657V140.273H81.1922V154.185ZM125.468 160.082C121.819 160.082 118.971 159.082 116.923 157.081C114.875 155.08 113.851 152.243 113.851 148.571V134.87H120.842V148.359C120.842 150.478 121.254 151.996 122.078 152.914C122.926 153.832 124.079 154.291 125.539 154.291C126.998 154.291 128.14 153.832 128.964 152.914C129.788 151.996 130.2 150.478 130.2 148.359V134.87H137.085V148.571C137.085 152.243 136.061 155.08 134.013 157.081C131.965 159.082 129.117 160.082 125.468 160.082ZM157.888 159.588V134.87H169.188C171.448 134.87 173.39 135.235 175.014 135.965C176.662 136.694 177.933 137.754 178.828 139.143C179.722 140.508 180.17 142.132 180.17 144.016C180.17 145.875 179.722 147.488 178.828 148.853C177.933 150.195 176.662 151.231 175.014 151.961C173.39 152.667 171.448 153.02 169.188 153.02H161.773L164.88 150.089V159.588H157.888ZM173.178 159.588L167.034 150.584H174.485L180.664 159.588H173.178ZM164.88 150.831L161.773 147.617H168.764C170.224 147.617 171.307 147.3 172.013 146.664C172.743 146.028 173.107 145.146 173.107 144.016C173.107 142.862 172.743 141.968 172.013 141.332C171.307 140.696 170.224 140.379 168.764 140.379H161.773L164.88 137.165V150.831ZM212.558 160.082C210.581 160.082 208.757 159.764 207.085 159.129C205.414 158.493 203.954 157.599 202.707 156.445C201.482 155.268 200.529 153.903 199.846 152.349C199.164 150.795 198.822 149.089 198.822 147.229C198.822 145.369 199.164 143.663 199.846 142.109C200.529 140.555 201.482 139.202 202.707 138.048C203.954 136.871 205.414 135.965 207.085 135.329C208.757 134.693 210.581 134.376 212.558 134.376C214.559 134.376 216.384 134.693 218.032 135.329C219.703 135.965 221.151 136.871 222.375 138.048C223.599 139.202 224.552 140.555 225.235 142.109C225.941 143.663 226.294 145.369 226.294 147.229C226.294 149.089 225.941 150.807 225.235 152.384C224.552 153.938 223.599 155.292 222.375 156.445C221.151 157.599 219.703 158.493 218.032 159.129C216.384 159.764 214.559 160.082 212.558 160.082ZM212.558 154.291C213.5 154.291 214.371 154.126 215.171 153.797C215.995 153.467 216.702 152.996 217.29 152.384C217.902 151.749 218.373 150.995 218.703 150.124C219.056 149.253 219.232 148.288 219.232 147.229C219.232 146.146 219.056 145.181 218.703 144.333C218.373 143.462 217.902 142.721 217.29 142.109C216.702 141.473 215.995 140.991 215.171 140.661C214.371 140.331 213.5 140.167 212.558 140.167C211.617 140.167 210.734 140.331 209.91 140.661C209.11 140.991 208.403 141.473 207.791 142.109C207.203 142.721 206.732 143.462 206.379 144.333C206.049 145.181 205.885 146.146 205.885 147.229C205.885 148.288 206.049 149.253 206.379 150.124C206.732 150.995 207.203 151.749 207.791 152.384C208.403 152.996 209.11 153.467 209.91 153.797C210.734 154.126 211.617 154.291 212.558 154.291ZM246.023 159.588V134.87H257.322C259.582 134.87 261.525 135.235 263.149 135.965C264.797 136.694 266.068 137.754 266.962 139.143C267.857 140.508 268.304 142.132 268.304 144.016C268.304 145.875 267.857 147.488 266.962 148.853C266.068 150.219 264.797 151.278 263.149 152.031C261.525 152.761 259.582 153.126 257.322 153.126H249.907L253.015 150.089V159.588H246.023ZM253.015 150.831L249.907 147.617H256.899C258.358 147.617 259.441 147.3 260.147 146.664C260.877 146.028 261.242 145.146 261.242 144.016C261.242 142.862 260.877 141.968 260.147 141.332C259.441 140.696 258.358 140.379 256.899 140.379H249.907L253.015 137.165V150.831ZM294.206 144.439H305.683V149.665H294.206V144.439ZM294.701 154.185H307.625V159.588H287.78V134.87H307.166V140.273H294.701V154.185Z" fill="white"/>
<g clip-path="url(#clip0_1_46)">
<path d="M94.0218 57.9631V41.156H73.9273L84.2502 57.9631H94.0218Z" fill="#E02031"/>
<path d="M326.512 105.26L381.361 105.149V41.2384L289.616 41.2687L316.318 87.8996L326.512 105.26Z" fill="#E02031"/>
<path d="M103.752 79.5774C103.752 101.983 121.521 118.897 145.026 118.897C156.465 118.642 167.598 115.177 177.145 108.903V78.9182H160.148V98.8001C155.913 101.021 151.241 102.295 146.46 102.532C143.443 102.561 140.451 101.984 137.664 100.835C134.877 99.6856 132.351 97.9886 130.239 95.8453C128.127 93.7019 126.471 91.1563 125.371 88.361C124.271 85.5656 123.749 82.5781 123.838 79.5774C123.757 76.6077 124.278 73.6522 125.37 70.887C126.462 68.1219 128.102 65.6037 130.192 63.4826C132.282 61.3615 134.781 59.6808 137.538 58.5406C140.295 57.4005 143.254 56.8243 146.24 56.8463C153.908 57.0523 161.242 60.0175 166.881 65.1924L177.917 51.9024C169.06 44.544 157.893 40.504 146.355 40.4838C121.961 40.4838 103.752 57.2865 103.752 79.5774Z" fill="white"/>
<path d="M73.9273 57.9652V118.06L94.0218 118.224V74.8656L84.2524 57.9652H73.9273Z" fill="white"/>
<path d="M63.4889 95.2244C63.4889 78.8315 50.9236 74.0893 38.6307 71.6065L37.5041 71.3896C26.2005 69.1475 20.5259 68.0243 20.5259 62.2022C20.5259 57.3299 24.7514 54.5283 32.1171 54.5283C39.6702 54.5283 44.7456 57.6313 46.4039 63.2604L46.5238 63.6941L62.7916 59.3313L62.6673 58.8976C59.1283 46.5747 48.1931 40.0566 31.0427 40.0566C11.9355 40.0566 1.40554 48.2119 1.40554 63.0154C1.40554 77.5131 11.4822 81.8455 22.3695 84.3652C24.5095 84.8509 26.5318 85.2672 28.4212 85.6532C38.4455 87.7045 44.5015 88.947 44.5015 95.6473C44.5015 102.534 38.1273 103.985 32.7752 103.985C22.4196 103.985 17.7823 98.6071 16.8953 93.5765L16.8081 93.0842L-0.0109253 97.5901L0.0762283 98.0043C1.98521 107.343 9.20711 118.472 32.7752 118.472C52.5885 118.448 63.4889 110.201 63.4889 95.2244Z" fill="white"/>
<path d="M284.153 58.078L274.384 41.2405H254.222L231.994 87.0323L210.202 41.2384H189.512V118.216H207.061V68.2542L225.602 108.879H238.405L256.946 68.2542L257.057 118.222H274.384V58.1083H284.144L284.153 58.078Z" fill="white"/>
<path d="M368.7 118.22L323.995 41.2427L314.241 58.1084L304.498 74.9762L304.481 74.9458L279.363 118.22H298.904L324.032 74.9154L349.159 118.22H368.7Z" fill="white"/>
</g>
<path d="M30.1578 25V0.282167H35.9135L46.1537 17.0903H43.117L53.0747 0.282167H58.8304L58.9011 25H52.4744L52.4038 10.0634H53.4985L46.0478 22.5635H42.9404L35.2779 10.0634H36.6197V25H30.1578ZM80.8682 9.8515H92.3443V15.0776H80.8682V9.8515ZM81.3626 19.5974H94.2865V25H74.4416V0.282167H93.8274V5.68478H81.3626V19.5974ZM115.186 9.8515H126.662V15.0776H115.186V9.8515ZM115.681 19.5974H128.605V25H108.76V0.282167H128.145V5.68478H115.681V19.5974ZM148.339 25V5.82602H140.747V0.282167H162.887V5.82602H155.331V25H148.339ZM196.955 25V0.282167H202.711L212.951 17.0903H209.914L219.872 0.282167H225.628L225.698 25H219.272L219.201 10.0634H220.296L212.845 22.5635H209.737L202.075 10.0634H203.417V25H196.955ZM247.665 9.8515H259.141V15.0776H247.665V9.8515ZM248.16 19.5974H261.084V25H241.239V0.282167H260.625V5.68478H248.16V19.5974ZM293.46 25L304.371 0.282167H311.257L322.203 25H314.929L306.384 3.70735H309.138L300.593 25H293.46ZM299.428 20.1977L301.229 15.0422H313.305L315.106 20.1977H299.428ZM338.799 25V5.82602H331.207V0.282167H353.347V5.82602H345.79V25H338.799Z" fill="#0048D4"/>
<defs>
<clipPath id="clip0_1_46">
<rect width="381.361" height="78.8616" fill="white" transform="translate(0 40.0349)"/>
</clipPath>
</defs>
</svg>
